<?xml version="1.0" encoding="UTF-8"?>
<svg width="512" height="512" viewBox="0 0 512 512" fill="none" xmlns="http://www.w3.org/2000/svg">
  <rect width="512" height="512" rx="100" fill="#5468FF"/>
  <path d="M256 96L384 176V336L256 416L128 336V176L256 96Z" fill="white" fill-opacity="0.2"/>
  <path d="M256 96L384 176V256L256 336L128 256V176L256 96Z" fill="white" fill-opacity="0.4"/>
  <path d="M256 96L320 136V216L256 256L192 216V136L256 96Z" fill="white"/>
  <path d="M256 256L320 296V376L256 416L192 376V296L256 256Z" fill="white"/>
  <path d="M128 176L192 216V296L128 336V176Z" fill="#FF6B4A"/>
  <path d="M320 216L384 176V336L320 296V216Z" fill="#00C9A7"/>
  <circle cx="256" cy="176" r="16" fill="#5468FF"/>
  <circle cx="256" cy="336" r="16" fill="#5468FF"/>
  <circle cx="192" cy="256" r="16" fill="#5468FF"/>
  <circle cx="320" cy="256" r="16" fill="#5468FF"/>
</svg>